<svg xmlns="http://www.w3.org/2000/svg" xmlns:xlink="http://www.w3.org/1999/xlink" width="1080" zoomAndPan="magnify" viewBox="0 0 810 809.999993" height="1080" preserveAspectRatio="xMidYMid meet" version="1.0"><defs><g/><clipPath id="74d4504efa"><path d="M 405 0 C 181.324219 0 0 181.324219 0 405 C 0 628.675781 181.324219 810 405 810 C 628.675781 810 810 628.675781 810 405 C 810 181.324219 628.675781 0 405 0 Z M 405 0 " clip-rule="nonzero"/></clipPath><linearGradient x1="0.000000000000026948" gradientTransform="matrix(3.164062, 0, 0, 3.164062, 0.0000035, 0.00002)" y1="128" x2="255.999989" gradientUnits="userSpaceOnUse" y2="128" id="37dd891cb9"><stop stop-opacity="1" stop-color="rgb(31.799316%, 43.899536%, 100%)" offset="0"/><stop stop-opacity="1" stop-color="rgb(32.064819%, 43.884277%, 99.908447%)" offset="0.00390625"/><stop stop-opacity="1" stop-color="rgb(32.331848%, 43.869019%, 99.81842%)" offset="0.0078125"/><stop stop-opacity="1" stop-color="rgb(32.597351%, 43.85376%, 99.728394%)" offset="0.0117188"/><stop stop-opacity="1" stop-color="rgb(32.86438%, 43.838501%, 99.638367%)" offset="0.015625"/><stop stop-opacity="1" stop-color="rgb(33.129883%, 43.823242%, 99.54834%)" offset="0.0195313"/><stop stop-opacity="1" stop-color="rgb(33.396912%, 43.807983%, 99.458313%)" offset="0.0234375"/><stop stop-opacity="1" stop-color="rgb(33.66394%, 43.792725%, 99.36676%)" offset="0.0273438"/><stop stop-opacity="1" stop-color="rgb(33.930969%, 43.777466%, 99.276733%)" offset="0.03125"/><stop stop-opacity="1" stop-color="rgb(34.196472%, 43.762207%, 99.186707%)" offset="0.0351562"/><stop stop-opacity="1" stop-color="rgb(34.463501%, 43.746948%, 99.09668%)" offset="0.0390625"/><stop stop-opacity="1" stop-color="rgb(34.729004%, 43.731689%, 99.006653%)" offset="0.0429688"/><stop stop-opacity="1" stop-color="rgb(34.996033%, 43.716431%, 98.916626%)" offset="0.046875"/><stop stop-opacity="1" stop-color="rgb(35.261536%, 43.701172%, 98.826599%)" offset="0.0507812"/><stop stop-opacity="1" stop-color="rgb(35.528564%, 43.685913%, 98.736572%)" offset="0.0546875"/><stop stop-opacity="1" stop-color="rgb(35.794067%, 43.670654%, 98.64502%)" offset="0.0585938"/><stop stop-opacity="1" stop-color="rgb(36.061096%, 43.655396%, 98.554993%)" offset="0.0625"/><stop stop-opacity="1" stop-color="rgb(36.328125%, 43.640137%, 98.464966%)" offset="0.0664062"/><stop stop-opacity="1" stop-color="rgb(36.595154%, 43.624878%, 98.374939%)" offset="0.0703125"/><stop stop-opacity="1" stop-color="rgb(36.860657%, 43.609619%, 98.284912%)" offset="0.0742188"/><stop stop-opacity="1" stop-color="rgb(37.127686%, 43.59436%, 98.194885%)" offset="0.078125"/><stop stop-opacity="1" stop-color="rgb(37.393188%, 43.579102%, 98.104858%)" offset="0.0820312"/><stop stop-opacity="1" stop-color="rgb(37.660217%, 43.563843%, 98.014832%)" offset="0.0859375"/><stop stop-opacity="1" stop-color="rgb(37.92572%, 43.548584%, 97.923279%)" offset="0.0898438"/><stop stop-opacity="1" stop-color="rgb(38.192749%, 43.533325%, 97.833252%)" offset="0.09375"/><stop stop-opacity="1" stop-color="rgb(38.458252%, 43.518066%, 97.743225%)" offset="0.0976562"/><stop stop-opacity="1" stop-color="rgb(38.725281%, 43.502808%, 97.653198%)" offset="0.101562"/><stop stop-opacity="1" stop-color="rgb(38.99231%, 43.487549%, 97.563171%)" offset="0.105469"/><stop stop-opacity="1" stop-color="rgb(39.259338%, 43.47229%, 97.473145%)" offset="0.109375"/><stop stop-opacity="1" stop-color="rgb(39.524841%, 43.457031%, 97.381592%)" offset="0.113281"/><stop stop-opacity="1" stop-color="rgb(39.79187%, 43.441772%, 97.291565%)" offset="0.117188"/><stop stop-opacity="1" stop-color="rgb(40.057373%, 43.426514%, 97.201538%)" offset="0.121094"/><stop stop-opacity="1" stop-color="rgb(40.324402%, 43.411255%, 97.111511%)" offset="0.125"/><stop stop-opacity="1" stop-color="rgb(40.589905%, 43.395996%, 97.021484%)" offset="0.128906"/><stop stop-opacity="1" stop-color="rgb(40.856934%, 43.380737%, 96.931458%)" offset="0.132812"/><stop stop-opacity="1" stop-color="rgb(41.122437%, 43.365479%, 96.841431%)" offset="0.136719"/><stop stop-opacity="1" stop-color="rgb(41.389465%, 43.35022%, 96.751404%)" offset="0.140625"/><stop stop-opacity="1" stop-color="rgb(41.654968%, 43.334961%, 96.659851%)" offset="0.144531"/><stop stop-opacity="1" stop-color="rgb(41.921997%, 43.319702%, 96.569824%)" offset="0.148438"/><stop stop-opacity="1" stop-color="rgb(42.189026%, 43.304443%, 96.479797%)" offset="0.152344"/><stop stop-opacity="1" stop-color="rgb(42.456055%, 43.289185%, 96.389771%)" offset="0.15625"/><stop stop-opacity="1" stop-color="rgb(42.721558%, 43.273926%, 96.299744%)" offset="0.160156"/><stop stop-opacity="1" stop-color="rgb(42.988586%, 43.258667%, 96.209717%)" offset="0.164062"/><stop stop-opacity="1" stop-color="rgb(43.254089%, 43.243408%, 96.11969%)" offset="0.167969"/><stop stop-opacity="1" stop-color="rgb(43.521118%, 43.229675%, 96.029663%)" offset="0.171875"/><stop stop-opacity="1" stop-color="rgb(43.786621%, 43.214417%, 95.93811%)" offset="0.175781"/><stop stop-opacity="1" stop-color="rgb(44.05365%, 43.199158%, 95.848083%)" offset="0.179688"/><stop stop-opacity="1" stop-color="rgb(44.319153%, 43.183899%, 95.758057%)" offset="0.183594"/><stop stop-opacity="1" stop-color="rgb(44.586182%, 43.16864%, 95.66803%)" offset="0.1875"/><stop stop-opacity="1" stop-color="rgb(44.85321%, 43.153381%, 95.578003%)" offset="0.191406"/><stop stop-opacity="1" stop-color="rgb(45.120239%, 43.138123%, 95.487976%)" offset="0.195312"/><stop stop-opacity="1" stop-color="rgb(45.385742%, 43.122864%, 95.396423%)" offset="0.199219"/><stop stop-opacity="1" stop-color="rgb(45.652771%, 43.107605%, 95.306396%)" offset="0.203125"/><stop stop-opacity="1" stop-color="rgb(45.918274%, 43.092346%, 95.21637%)" offset="0.207031"/><stop stop-opacity="1" stop-color="rgb(46.185303%, 43.077087%, 95.126343%)" offset="0.210938"/><stop stop-opacity="1" stop-color="rgb(46.450806%, 43.061829%, 95.036316%)" offset="0.214844"/><stop stop-opacity="1" stop-color="rgb(46.717834%, 43.04657%, 94.946289%)" offset="0.21875"/><stop stop-opacity="1" stop-color="rgb(46.983337%, 43.031311%, 94.856262%)" offset="0.222656"/><stop stop-opacity="1" stop-color="rgb(47.250366%, 43.016052%, 94.766235%)" offset="0.226562"/><stop stop-opacity="1" stop-color="rgb(47.515869%, 43.000793%, 94.674683%)" offset="0.230469"/><stop stop-opacity="1" stop-color="rgb(47.782898%, 42.985535%, 94.584656%)" offset="0.234375"/><stop stop-opacity="1" stop-color="rgb(48.049927%, 42.970276%, 94.494629%)" offset="0.238281"/><stop stop-opacity="1" stop-color="rgb(48.316956%, 42.955017%, 94.404602%)" offset="0.242188"/><stop stop-opacity="1" stop-color="rgb(48.582458%, 42.939758%, 94.314575%)" offset="0.246094"/><stop stop-opacity="1" stop-color="rgb(48.849487%, 42.9245%, 94.224548%)" offset="0.25"/><stop stop-opacity="1" stop-color="rgb(49.11499%, 42.909241%, 94.134521%)" offset="0.253906"/><stop stop-opacity="1" stop-color="rgb(49.382019%, 42.893982%, 94.044495%)" offset="0.257812"/><stop stop-opacity="1" stop-color="rgb(49.647522%, 42.878723%, 93.952942%)" offset="0.261719"/><stop stop-opacity="1" stop-color="rgb(49.914551%, 42.863464%, 93.862915%)" offset="0.265625"/><stop stop-opacity="1" stop-color="rgb(50.180054%, 42.848206%, 93.772888%)" offset="0.269531"/><stop stop-opacity="1" stop-color="rgb(50.447083%, 42.832947%, 93.682861%)" offset="0.273438"/><stop stop-opacity="1" stop-color="rgb(50.714111%, 42.817688%, 93.592834%)" offset="0.277344"/><stop stop-opacity="1" stop-color="rgb(50.98114%, 42.802429%, 93.502808%)" offset="0.28125"/><stop stop-opacity="1" stop-color="rgb(51.246643%, 42.78717%, 93.411255%)" offset="0.285156"/><stop stop-opacity="1" stop-color="rgb(51.513672%, 42.771912%, 93.321228%)" offset="0.289062"/><stop stop-opacity="1" stop-color="rgb(51.779175%, 42.756653%, 93.231201%)" offset="0.292969"/><stop stop-opacity="1" stop-color="rgb(52.046204%, 42.741394%, 93.141174%)" offset="0.296875"/><stop stop-opacity="1" stop-color="rgb(52.311707%, 42.726135%, 93.051147%)" offset="0.300781"/><stop stop-opacity="1" stop-color="rgb(52.578735%, 42.710876%, 92.961121%)" offset="0.304688"/><stop stop-opacity="1" stop-color="rgb(52.844238%, 42.695618%, 92.871094%)" offset="0.308594"/><stop stop-opacity="1" stop-color="rgb(53.111267%, 42.680359%, 92.781067%)" offset="0.3125"/><stop stop-opacity="1" stop-color="rgb(53.37677%, 42.6651%, 92.689514%)" offset="0.316406"/><stop stop-opacity="1" stop-color="rgb(53.643799%, 42.649841%, 92.599487%)" offset="0.320312"/><stop stop-opacity="1" stop-color="rgb(53.910828%, 42.634583%, 92.50946%)" offset="0.324219"/><stop stop-opacity="1" stop-color="rgb(54.177856%, 42.619324%, 92.419434%)" offset="0.328125"/><stop stop-opacity="1" stop-color="rgb(54.443359%, 42.604065%, 92.329407%)" offset="0.332031"/><stop stop-opacity="1" stop-color="rgb(54.710388%, 42.588806%, 92.23938%)" offset="0.335938"/><stop stop-opacity="1" stop-color="rgb(54.975891%, 42.573547%, 92.149353%)" offset="0.339844"/><stop stop-opacity="1" stop-color="rgb(55.24292%, 42.558289%, 92.059326%)" offset="0.34375"/><stop stop-opacity="1" stop-color="rgb(55.508423%, 42.54303%, 91.967773%)" offset="0.347656"/><stop stop-opacity="1" stop-color="rgb(55.775452%, 42.527771%, 91.877747%)" offset="0.351562"/><stop stop-opacity="1" stop-color="rgb(56.040955%, 42.512512%, 91.78772%)" offset="0.355469"/><stop stop-opacity="1" stop-color="rgb(56.307983%, 42.497253%, 91.697693%)" offset="0.359375"/><stop stop-opacity="1" stop-color="rgb(56.575012%, 42.481995%, 91.607666%)" offset="0.363281"/><stop stop-opacity="1" stop-color="rgb(56.842041%, 42.466736%, 91.517639%)" offset="0.367188"/><stop stop-opacity="1" stop-color="rgb(57.107544%, 42.451477%, 91.426086%)" offset="0.371094"/><stop stop-opacity="1" stop-color="rgb(57.374573%, 42.436218%, 91.33606%)" offset="0.375"/><stop stop-opacity="1" stop-color="rgb(57.640076%, 42.420959%, 91.246033%)" offset="0.378906"/><stop stop-opacity="1" stop-color="rgb(57.907104%, 42.405701%, 91.156006%)" offset="0.382812"/><stop stop-opacity="1" stop-color="rgb(58.172607%, 42.390442%, 91.065979%)" offset="0.386719"/><stop stop-opacity="1" stop-color="rgb(58.439636%, 42.375183%, 90.975952%)" offset="0.390625"/><stop stop-opacity="1" stop-color="rgb(58.705139%, 42.359924%, 90.885925%)" offset="0.394531"/><stop stop-opacity="1" stop-color="rgb(58.972168%, 42.344666%, 90.795898%)" offset="0.398438"/><stop stop-opacity="1" stop-color="rgb(59.239197%, 42.329407%, 90.704346%)" offset="0.402344"/><stop stop-opacity="1" stop-color="rgb(59.506226%, 42.314148%, 90.614319%)" offset="0.40625"/><stop stop-opacity="1" stop-color="rgb(59.771729%, 42.298889%, 90.524292%)" offset="0.410156"/><stop stop-opacity="1" stop-color="rgb(60.038757%, 42.285156%, 90.434265%)" offset="0.414062"/><stop stop-opacity="1" stop-color="rgb(60.30426%, 42.269897%, 90.344238%)" offset="0.417969"/><stop stop-opacity="1" stop-color="rgb(60.571289%, 42.254639%, 90.254211%)" offset="0.421875"/><stop stop-opacity="1" stop-color="rgb(60.836792%, 42.23938%, 90.164185%)" offset="0.425781"/><stop stop-opacity="1" stop-color="rgb(61.103821%, 42.224121%, 90.074158%)" offset="0.429688"/><stop stop-opacity="1" stop-color="rgb(61.369324%, 42.208862%, 89.982605%)" offset="0.433594"/><stop stop-opacity="1" stop-color="rgb(61.636353%, 42.193604%, 89.892578%)" offset="0.4375"/><stop stop-opacity="1" stop-color="rgb(61.901855%, 42.178345%, 89.802551%)" offset="0.441406"/><stop stop-opacity="1" stop-color="rgb(62.168884%, 42.163086%, 89.712524%)" offset="0.445312"/><stop stop-opacity="1" stop-color="rgb(62.435913%, 42.147827%, 89.622498%)" offset="0.449219"/><stop stop-opacity="1" stop-color="rgb(62.702942%, 42.132568%, 89.532471%)" offset="0.453125"/><stop stop-opacity="1" stop-color="rgb(62.968445%, 42.11731%, 89.440918%)" offset="0.457031"/><stop stop-opacity="1" stop-color="rgb(63.235474%, 42.102051%, 89.350891%)" offset="0.460938"/><stop stop-opacity="1" stop-color="rgb(63.500977%, 42.086792%, 89.260864%)" offset="0.464844"/><stop stop-opacity="1" stop-color="rgb(63.768005%, 42.071533%, 89.170837%)" offset="0.46875"/><stop stop-opacity="1" stop-color="rgb(64.033508%, 42.056274%, 89.080811%)" offset="0.472656"/><stop stop-opacity="1" stop-color="rgb(64.300537%, 42.041016%, 88.990784%)" offset="0.476562"/><stop stop-opacity="1" stop-color="rgb(64.56604%, 42.025757%, 88.900757%)" offset="0.480469"/><stop stop-opacity="1" stop-color="rgb(64.833069%, 42.010498%, 88.81073%)" offset="0.484375"/><stop stop-opacity="1" stop-color="rgb(65.100098%, 41.995239%, 88.719177%)" offset="0.488281"/><stop stop-opacity="1" stop-color="rgb(65.367126%, 41.97998%, 88.62915%)" offset="0.492188"/><stop stop-opacity="1" stop-color="rgb(65.632629%, 41.964722%, 88.539124%)" offset="0.496094"/><stop stop-opacity="1" stop-color="rgb(65.899658%, 41.949463%, 88.449097%)" offset="0.5"/><stop stop-opacity="1" stop-color="rgb(66.165161%, 41.934204%, 88.35907%)" offset="0.503906"/><stop stop-opacity="1" stop-color="rgb(66.43219%, 41.918945%, 88.269043%)" offset="0.507812"/><stop stop-opacity="1" stop-color="rgb(66.697693%, 41.903687%, 88.179016%)" offset="0.511719"/><stop stop-opacity="1" stop-color="rgb(66.964722%, 41.888428%, 88.088989%)" offset="0.515625"/><stop stop-opacity="1" stop-color="rgb(67.230225%, 41.873169%, 87.997437%)" offset="0.519531"/><stop stop-opacity="1" stop-color="rgb(67.497253%, 41.85791%, 87.90741%)" offset="0.523438"/><stop stop-opacity="1" stop-color="rgb(67.762756%, 41.842651%, 87.817383%)" offset="0.527344"/><stop stop-opacity="1" stop-color="rgb(68.029785%, 41.827393%, 87.727356%)" offset="0.53125"/><stop stop-opacity="1" stop-color="rgb(68.296814%, 41.812134%, 87.637329%)" offset="0.535156"/><stop stop-opacity="1" stop-color="rgb(68.563843%, 41.796875%, 87.547302%)" offset="0.539062"/><stop stop-opacity="1" stop-color="rgb(68.829346%, 41.781616%, 87.45575%)" offset="0.542969"/><stop stop-opacity="1" stop-color="rgb(69.096375%, 41.766357%, 87.365723%)" offset="0.546875"/><stop stop-opacity="1" stop-color="rgb(69.361877%, 41.751099%, 87.275696%)" offset="0.550781"/><stop stop-opacity="1" stop-color="rgb(69.628906%, 41.73584%, 87.185669%)" offset="0.554688"/><stop stop-opacity="1" stop-color="rgb(69.894409%, 41.720581%, 87.095642%)" offset="0.558594"/><stop stop-opacity="1" stop-color="rgb(70.161438%, 41.705322%, 87.005615%)" offset="0.5625"/><stop stop-opacity="1" stop-color="rgb(70.426941%, 41.690063%, 86.915588%)" offset="0.566406"/><stop stop-opacity="1" stop-color="rgb(70.69397%, 41.674805%, 86.825562%)" offset="0.570312"/><stop stop-opacity="1" stop-color="rgb(70.960999%, 41.659546%, 86.734009%)" offset="0.574219"/><stop stop-opacity="1" stop-color="rgb(71.228027%, 41.644287%, 86.643982%)" offset="0.578125"/><stop stop-opacity="1" stop-color="rgb(71.49353%, 41.629028%, 86.553955%)" offset="0.582031"/><stop stop-opacity="1" stop-color="rgb(71.760559%, 41.61377%, 86.463928%)" offset="0.585938"/><stop stop-opacity="1" stop-color="rgb(72.026062%, 41.598511%, 86.373901%)" offset="0.589844"/><stop stop-opacity="1" stop-color="rgb(72.293091%, 41.583252%, 86.283875%)" offset="0.59375"/><stop stop-opacity="1" stop-color="rgb(72.558594%, 41.567993%, 86.193848%)" offset="0.597656"/><stop stop-opacity="1" stop-color="rgb(72.825623%, 41.552734%, 86.103821%)" offset="0.601562"/><stop stop-opacity="1" stop-color="rgb(73.091125%, 41.537476%, 86.012268%)" offset="0.605469"/><stop stop-opacity="1" stop-color="rgb(73.358154%, 41.522217%, 85.922241%)" offset="0.609375"/><stop stop-opacity="1" stop-color="rgb(73.623657%, 41.506958%, 85.832214%)" offset="0.613281"/><stop stop-opacity="1" stop-color="rgb(73.890686%, 41.491699%, 85.742188%)" offset="0.617188"/><stop stop-opacity="1" stop-color="rgb(74.157715%, 41.47644%, 85.652161%)" offset="0.621094"/><stop stop-opacity="1" stop-color="rgb(74.424744%, 41.461182%, 85.562134%)" offset="0.625"/><stop stop-opacity="1" stop-color="rgb(74.690247%, 41.445923%, 85.470581%)" offset="0.628906"/><stop stop-opacity="1" stop-color="rgb(74.957275%, 41.430664%, 85.380554%)" offset="0.632812"/><stop stop-opacity="1" stop-color="rgb(75.222778%, 41.415405%, 85.290527%)" offset="0.636719"/><stop stop-opacity="1" stop-color="rgb(75.489807%, 41.400146%, 85.2005%)" offset="0.640625"/><stop stop-opacity="1" stop-color="rgb(75.75531%, 41.384888%, 85.110474%)" offset="0.644531"/><stop stop-opacity="1" stop-color="rgb(76.022339%, 41.369629%, 85.020447%)" offset="0.648438"/><stop stop-opacity="1" stop-color="rgb(76.287842%, 41.35437%, 84.93042%)" offset="0.652344"/><stop stop-opacity="1" stop-color="rgb(76.554871%, 41.339111%, 84.840393%)" offset="0.65625"/><stop stop-opacity="1" stop-color="rgb(76.821899%, 41.323853%, 84.74884%)" offset="0.660156"/><stop stop-opacity="1" stop-color="rgb(77.088928%, 41.31012%, 84.658813%)" offset="0.664062"/><stop stop-opacity="1" stop-color="rgb(77.354431%, 41.294861%, 84.568787%)" offset="0.667969"/><stop stop-opacity="1" stop-color="rgb(77.62146%, 41.279602%, 84.47876%)" offset="0.671875"/><stop stop-opacity="1" stop-color="rgb(77.886963%, 41.264343%, 84.388733%)" offset="0.675781"/><stop stop-opacity="1" stop-color="rgb(78.153992%, 41.249084%, 84.298706%)" offset="0.679688"/><stop stop-opacity="1" stop-color="rgb(78.419495%, 41.233826%, 84.208679%)" offset="0.683594"/><stop stop-opacity="1" stop-color="rgb(78.686523%, 41.218567%, 84.118652%)" offset="0.6875"/><stop stop-opacity="1" stop-color="rgb(78.952026%, 41.203308%, 84.0271%)" offset="0.691406"/><stop stop-opacity="1" stop-color="rgb(79.219055%, 41.188049%, 83.937073%)" offset="0.695312"/><stop stop-opacity="1" stop-color="rgb(79.486084%, 41.172791%, 83.847046%)" offset="0.699219"/><stop stop-opacity="1" stop-color="rgb(79.753113%, 41.157532%, 83.757019%)" offset="0.703125"/><stop stop-opacity="1" stop-color="rgb(80.018616%, 41.142273%, 83.666992%)" offset="0.707031"/><stop stop-opacity="1" stop-color="rgb(80.285645%, 41.127014%, 83.576965%)" offset="0.710938"/><stop stop-opacity="1" stop-color="rgb(80.551147%, 41.111755%, 83.485413%)" offset="0.714844"/><stop stop-opacity="1" stop-color="rgb(80.818176%, 41.096497%, 83.395386%)" offset="0.71875"/><stop stop-opacity="1" stop-color="rgb(81.083679%, 41.081238%, 83.305359%)" offset="0.722656"/><stop stop-opacity="1" stop-color="rgb(81.350708%, 41.065979%, 83.215332%)" offset="0.726562"/><stop stop-opacity="1" stop-color="rgb(81.616211%, 41.05072%, 83.125305%)" offset="0.730469"/><stop stop-opacity="1" stop-color="rgb(81.88324%, 41.035461%, 83.035278%)" offset="0.734375"/><stop stop-opacity="1" stop-color="rgb(82.148743%, 41.020203%, 82.945251%)" offset="0.738281"/><stop stop-opacity="1" stop-color="rgb(82.415771%, 41.004944%, 82.855225%)" offset="0.742188"/><stop stop-opacity="1" stop-color="rgb(82.6828%, 40.989685%, 82.763672%)" offset="0.746094"/><stop stop-opacity="1" stop-color="rgb(82.949829%, 40.974426%, 82.673645%)" offset="0.75"/><stop stop-opacity="1" stop-color="rgb(83.215332%, 40.959167%, 82.583618%)" offset="0.753906"/><stop stop-opacity="1" stop-color="rgb(83.482361%, 40.943909%, 82.493591%)" offset="0.757812"/><stop stop-opacity="1" stop-color="rgb(83.747864%, 40.92865%, 82.403564%)" offset="0.761719"/><stop stop-opacity="1" stop-color="rgb(84.014893%, 40.913391%, 82.313538%)" offset="0.765625"/><stop stop-opacity="1" stop-color="rgb(84.280396%, 40.898132%, 82.223511%)" offset="0.769531"/><stop stop-opacity="1" stop-color="rgb(84.547424%, 40.882874%, 82.133484%)" offset="0.773438"/><stop stop-opacity="1" stop-color="rgb(84.812927%, 40.867615%, 82.041931%)" offset="0.777344"/><stop stop-opacity="1" stop-color="rgb(85.079956%, 40.852356%, 81.951904%)" offset="0.78125"/><stop stop-opacity="1" stop-color="rgb(85.346985%, 40.837097%, 81.861877%)" offset="0.785156"/><stop stop-opacity="1" stop-color="rgb(85.614014%, 40.821838%, 81.771851%)" offset="0.789062"/><stop stop-opacity="1" stop-color="rgb(85.879517%, 40.80658%, 81.681824%)" offset="0.792969"/><stop stop-opacity="1" stop-color="rgb(86.146545%, 40.791321%, 81.591797%)" offset="0.796875"/><stop stop-opacity="1" stop-color="rgb(86.412048%, 40.776062%, 81.500244%)" offset="0.800781"/><stop stop-opacity="1" stop-color="rgb(86.679077%, 40.760803%, 81.410217%)" offset="0.804688"/><stop stop-opacity="1" stop-color="rgb(86.94458%, 40.745544%, 81.32019%)" offset="0.808594"/><stop stop-opacity="1" stop-color="rgb(87.211609%, 40.730286%, 81.230164%)" offset="0.8125"/><stop stop-opacity="1" stop-color="rgb(87.477112%, 40.715027%, 81.140137%)" offset="0.816406"/><stop stop-opacity="1" stop-color="rgb(87.744141%, 40.699768%, 81.05011%)" offset="0.820312"/><stop stop-opacity="1" stop-color="rgb(88.009644%, 40.684509%, 80.960083%)" offset="0.824219"/><stop stop-opacity="1" stop-color="rgb(88.276672%, 40.66925%, 80.870056%)" offset="0.828125"/><stop stop-opacity="1" stop-color="rgb(88.543701%, 40.653992%, 80.778503%)" offset="0.832031"/><stop stop-opacity="1" stop-color="rgb(88.81073%, 40.638733%, 80.688477%)" offset="0.835938"/><stop stop-opacity="1" stop-color="rgb(89.076233%, 40.623474%, 80.59845%)" offset="0.839844"/><stop stop-opacity="1" stop-color="rgb(89.343262%, 40.608215%, 80.508423%)" offset="0.84375"/><stop stop-opacity="1" stop-color="rgb(89.608765%, 40.592957%, 80.418396%)" offset="0.847656"/><stop stop-opacity="1" stop-color="rgb(89.875793%, 40.577698%, 80.328369%)" offset="0.851562"/><stop stop-opacity="1" stop-color="rgb(90.141296%, 40.562439%, 80.238342%)" offset="0.855469"/><stop stop-opacity="1" stop-color="rgb(90.408325%, 40.54718%, 80.148315%)" offset="0.859375"/><stop stop-opacity="1" stop-color="rgb(90.673828%, 40.531921%, 80.056763%)" offset="0.863281"/><stop stop-opacity="1" stop-color="rgb(90.940857%, 40.516663%, 79.966736%)" offset="0.867188"/><stop stop-opacity="1" stop-color="rgb(91.207886%, 40.501404%, 79.876709%)" offset="0.871094"/><stop stop-opacity="1" stop-color="rgb(91.474915%, 40.486145%, 79.786682%)" offset="0.875"/><stop stop-opacity="1" stop-color="rgb(91.740417%, 40.470886%, 79.696655%)" offset="0.878906"/><stop stop-opacity="1" stop-color="rgb(92.007446%, 40.455627%, 79.606628%)" offset="0.882812"/><stop stop-opacity="1" stop-color="rgb(92.272949%, 40.440369%, 79.515076%)" offset="0.886719"/><stop stop-opacity="1" stop-color="rgb(92.539978%, 40.42511%, 79.425049%)" offset="0.890625"/><stop stop-opacity="1" stop-color="rgb(92.805481%, 40.409851%, 79.335022%)" offset="0.894531"/><stop stop-opacity="1" stop-color="rgb(93.07251%, 40.394592%, 79.244995%)" offset="0.898438"/><stop stop-opacity="1" stop-color="rgb(93.338013%, 40.379333%, 79.154968%)" offset="0.902344"/><stop stop-opacity="1" stop-color="rgb(93.605042%, 40.365601%, 79.064941%)" offset="0.90625"/><stop stop-opacity="1" stop-color="rgb(93.870544%, 40.350342%, 78.974915%)" offset="0.910156"/><stop stop-opacity="1" stop-color="rgb(94.137573%, 40.335083%, 78.884888%)" offset="0.914062"/><stop stop-opacity="1" stop-color="rgb(94.404602%, 40.319824%, 78.793335%)" offset="0.917969"/><stop stop-opacity="1" stop-color="rgb(94.671631%, 40.304565%, 78.703308%)" offset="0.921875"/><stop stop-opacity="1" stop-color="rgb(94.937134%, 40.289307%, 78.613281%)" offset="0.925781"/><stop stop-opacity="1" stop-color="rgb(95.204163%, 40.274048%, 78.523254%)" offset="0.929688"/><stop stop-opacity="1" stop-color="rgb(95.469666%, 40.258789%, 78.433228%)" offset="0.933594"/><stop stop-opacity="1" stop-color="rgb(95.736694%, 40.24353%, 78.343201%)" offset="0.9375"/><stop stop-opacity="1" stop-color="rgb(96.002197%, 40.228271%, 78.253174%)" offset="0.941406"/><stop stop-opacity="1" stop-color="rgb(96.269226%, 40.213013%, 78.163147%)" offset="0.945312"/><stop stop-opacity="1" stop-color="rgb(96.534729%, 40.197754%, 78.071594%)" offset="0.949219"/><stop stop-opacity="1" stop-color="rgb(96.801758%, 40.182495%, 77.981567%)" offset="0.953125"/><stop stop-opacity="1" stop-color="rgb(97.068787%, 40.167236%, 77.891541%)" offset="0.957031"/><stop stop-opacity="1" stop-color="rgb(97.335815%, 40.151978%, 77.801514%)" offset="0.960938"/><stop stop-opacity="1" stop-color="rgb(97.601318%, 40.136719%, 77.711487%)" offset="0.964844"/><stop stop-opacity="1" stop-color="rgb(97.868347%, 40.12146%, 77.62146%)" offset="0.96875"/><stop stop-opacity="1" stop-color="rgb(98.13385%, 40.106201%, 77.531433%)" offset="0.972656"/><stop stop-opacity="1" stop-color="rgb(98.400879%, 40.090942%, 77.441406%)" offset="0.976562"/><stop stop-opacity="1" stop-color="rgb(98.666382%, 40.075684%, 77.349854%)" offset="0.980469"/><stop stop-opacity="1" stop-color="rgb(98.933411%, 40.060425%, 77.259827%)" offset="0.984375"/><stop stop-opacity="1" stop-color="rgb(99.198914%, 40.045166%, 77.1698%)" offset="0.988281"/><stop stop-opacity="1" stop-color="rgb(99.465942%, 40.029907%, 77.079773%)" offset="0.992188"/><stop stop-opacity="1" stop-color="rgb(99.731445%, 40.014648%, 76.989746%)" offset="0.996094"/><stop stop-opacity="1" stop-color="rgb(99.998474%, 39.99939%, 76.899719%)" offset="1"/></linearGradient><clipPath id="9fc437403b"><path d="M 132.378906 132.378906 L 677.617188 132.378906 L 677.617188 677.617188 L 132.378906 677.617188 Z M 132.378906 132.378906 " clip-rule="nonzero"/></clipPath><clipPath id="b98d58cd96"><path d="M 404.996094 132.378906 C 254.433594 132.378906 132.378906 254.433594 132.378906 404.996094 C 132.378906 555.558594 254.433594 677.617188 404.996094 677.617188 C 555.558594 677.617188 677.617188 555.558594 677.617188 404.996094 C 677.617188 254.433594 555.558594 132.378906 404.996094 132.378906 Z M 404.996094 132.378906 " clip-rule="nonzero"/></clipPath></defs><g clip-path="url(#74d4504efa)"><rect x="-81" fill="url(#37dd891cb9)" width="972" y="-80.999999" height="971.999992"/></g><g fill="#000000" fill-opacity="1"><g transform="translate(146.538558, 220.973769)"><g><path d="M 20.25 -25.03125 L 16.65625 -27.9375 L 2.734375 -10.734375 L -8.453125 -19.78125 L 5.203125 -36.65625 L 1.609375 -39.578125 L -12.046875 -22.703125 L -22.5 -31.140625 L -8.578125 -48.34375 L -12.171875 -51.265625 L -29.359375 -30.03125 L 3.0625 -3.796875 Z M 20.25 -25.03125 "/></g></g></g><g fill="#000000" fill-opacity="1"><g transform="translate(175.334088, 186.397064)"><g><path d="M -2.234375 -5.921875 C 2.90625 -5.421875 8.671875 -7.015625 14.015625 -11.953125 C 22.265625 -19.59375 21.09375 -26.921875 16.96875 -31.375 C 11.015625 -37.8125 3.875 -34.09375 -2.34375 -30.796875 C -7.234375 -28.234375 -11.609375 -25.890625 -14.453125 -28.953125 C -17.140625 -31.84375 -16.359375 -36.234375 -12.6875 -39.640625 C -9.328125 -42.75 -5.0625 -44.578125 -0.421875 -44.1875 L -0.734375 -49.109375 C -5.796875 -49.421875 -10.875 -47.640625 -15.546875 -43.296875 C -21.5625 -37.734375 -22.875 -30.109375 -18.203125 -25.078125 C -12.640625 -19.0625 -5.90625 -22.75 0.203125 -26.015625 C 5.25 -28.65625 9.90625 -31.09375 13.3125 -27.40625 C 15.484375 -25.078125 16.453125 -20.515625 10.984375 -15.46875 C 6.671875 -11.46875 1.40625 -10.515625 -2.6875 -10.890625 Z M -2.234375 -5.921875 "/></g></g></g><g fill="#000000" fill-opacity="1"><g transform="translate(209.605097, 155.629978)"><g><path d="M 16.796875 -11.5625 L -4.234375 -42.09375 L 6.671875 -49.625 L 4.046875 -53.4375 L -22.015625 -35.484375 L -19.390625 -31.671875 L -8.53125 -39.15625 L 12.5 -8.625 Z M 16.796875 -11.5625 "/></g></g></g><g fill="#000000" fill-opacity="1"><g transform="translate(246.774099, 130.479286)"><g><path d="M 35.734375 -17.171875 L 17.671875 -54.765625 L 12.984375 -52.515625 L 20.75 -36.34375 L -1.234375 -25.78125 L -9 -41.953125 L -13.671875 -39.703125 L 4.390625 -2.109375 L 9.0625 -4.359375 L 0.78125 -21.609375 L 22.765625 -32.171875 L 31.046875 -14.921875 Z M 35.734375 -17.171875 "/></g></g></g><g fill="#000000" fill-opacity="1"><g transform="translate(295.638557, 108.175164)"><g><path d="M 30.828125 -9.28125 L 29.5 -13.703125 L 8.3125 -7.328125 L 4.15625 -21.109375 L 24.9375 -27.359375 L 23.609375 -31.796875 L 2.828125 -25.546875 L -1.046875 -38.40625 L 20.140625 -44.78125 L 18.796875 -49.21875 L -7.359375 -41.34375 L 4.671875 -1.40625 Z M 30.828125 -9.28125 "/></g></g></g><g fill="#000000" fill-opacity="1"><g transform="translate(338.863009, 95.780651)"><g><path d="M 34.765625 -5.140625 L 21.15625 -20.328125 C 26.703125 -21.65625 31.15625 -26.484375 30.0625 -33.90625 C 28.9375 -41.515625 22.84375 -45.53125 15.296875 -44.421875 L -1.28125 -41.96875 L 4.828125 -0.71875 L 9.953125 -1.46875 L 7.53125 -17.875 L 15.765625 -19.09375 L 28.703125 -4.25 Z M 24.75 -33.125 C 25.4375 -28.484375 22.578125 -24.703125 17.703125 -23.984375 L 6.859375 -22.375 L 4.53125 -38.140625 L 15.375 -39.75 C 20.25 -40.46875 24.0625 -37.765625 24.75 -33.125 Z M 24.75 -33.125 "/></g></g></g><g fill="#000000" fill-opacity="1"><g transform="translate(386.385561, 89.977218)"><g/></g></g><g fill="#000000" fill-opacity="1"><g transform="translate(412.195147, 88.791521)"><g><path d="M 5.265625 -20.390625 C 4.03125 -8.125 11.359375 1.90625 23.6875 3.15625 C 35.9375 4.40625 45.203125 -3.953125 46.4375 -16.21875 C 47.6875 -28.46875 40.296875 -38.515625 28.046875 -39.765625 C 15.71875 -41.015625 6.515625 -32.640625 5.265625 -20.390625 Z M 41.09375 -16.765625 C 40.125 -7.109375 33.421875 -0.515625 24.15625 -1.453125 C 14.8125 -2.390625 9.640625 -10.203125 10.609375 -19.859375 C 11.59375 -29.5625 18.234375 -36.109375 27.578125 -35.171875 C 36.84375 -34.234375 42.078125 -26.46875 41.09375 -16.765625 Z M 41.09375 -16.765625 "/></g></g></g><g fill="#000000" fill-opacity="1"><g transform="translate(468.773753, 95.866816)"><g><path d="M 28.5 7.453125 L 29.671875 2.984375 L 10.90625 -1.921875 L 20.28125 -37.796875 L 15.265625 -39.109375 L 4.71875 1.234375 Z M 28.5 7.453125 "/></g></g></g><g fill="#000000" fill-opacity="1"><g transform="translate(508.648755, 106.653787)"><g><path d="M 37.359375 15.828125 L 38.15625 -29.140625 L 32.21875 -31.640625 L 0.515625 0.21875 L 5.8125 2.46875 L 12.8125 -4.609375 L 32.28125 3.625 L 32.0625 13.578125 Z M 32.640625 -1.25 L 16 -8.296875 L 33.421875 -26.109375 Z M 32.640625 -1.25 "/></g></g></g><g fill="#000000" fill-opacity="1"><g transform="translate(554.646511, 126.65621)"><g><path d="M 13.921875 -15.828125 C 7.265625 -5.4375 9.28125 6.828125 19.71875 13.5 C 30.09375 20.140625 42.125 16.875 48.78125 6.484375 C 55.40625 -3.875 53.34375 -16.1875 42.96875 -22.828125 C 32.53125 -29.5 20.546875 -26.1875 13.921875 -15.828125 Z M 44.25 3.578125 C 39.015625 11.75 30.0625 14.625 22.21875 9.609375 C 14.3125 4.546875 13.21875 -4.765625 18.453125 -12.9375 C 23.703125 -21.140625 32.578125 -24 40.484375 -18.9375 C 48.328125 -13.921875 49.5 -4.625 44.25 3.578125 Z M 44.25 3.578125 "/></g></g></g><g fill="#000000" fill-opacity="1"><g transform="translate(601.953963, 158.582016)"><g><path d="M 3.203125 -2.59375 C 3.125 1.828125 4.859375 5.265625 8.1875 8.1875 C 13.78125 13.109375 20.96875 13.765625 26.953125 6.953125 L 46.1875 -14.9375 L 42.28125 -18.359375 L 23.078125 3.484375 C 19.65625 7.375 14.875 7.90625 11.015625 4.515625 C 8.296875 2.125 7.734375 -0.9375 7.8125 -3.78125 Z M 3.203125 -2.59375 "/></g></g></g><g fill="#000000" fill-opacity="1"><g transform="translate(631.266602, 184.355062)"><g><path d="M 18 -10.953125 C 8.5625 -3.03125 6.8125 9.296875 14.78125 18.78125 C 22.703125 28.203125 35.171875 28.671875 44.609375 20.75 C 54.03125 12.828125 55.75 0.46875 47.828125 -8.953125 C 39.859375 -18.4375 27.421875 -18.875 18 -10.953125 Z M 41.15625 16.625 C 33.71875 22.859375 24.3125 22.9375 18.328125 15.8125 C 12.296875 8.625 14.015625 -0.59375 21.453125 -6.828125 C 28.921875 -13.09375 38.25 -13.171875 44.28125 -5.984375 C 50.265625 1.140625 48.625 10.359375 41.15625 16.625 Z M 41.15625 16.625 "/></g></g></g><g fill="#000000" fill-opacity="1"><g transform="translate(201.92663, 694.537548)"><g><path d="M 8.265625 5.515625 L 17.359375 -8.109375 L 26.875 -1.75 C 33.65625 2.765625 40.75 0.6875 44.5 -4.90625 C 48.234375 -10.5 47.53125 -17.8125 40.65625 -22.390625 L 26.875 -31.59375 L 4 2.671875 Z M 40.078125 -7.859375 C 37.5 -4.015625 32.9375 -3.171875 28.890625 -5.890625 L 19.890625 -11.890625 L 28.59375 -24.953125 L 37.59375 -18.953125 C 41.640625 -16.234375 42.65625 -11.71875 40.078125 -7.859375 Z M 40.078125 -7.859375 "/></g></g></g><g fill="#000000" fill-opacity="1"><g transform="translate(244.825308, 722.26047)"><g><path d="M 11.390625 -17.40625 C 6.359375 -6.34375 10.046875 5.375 21.1875 10.4375 C 32.265625 15.46875 43.5625 10.5625 48.59375 -0.5 C 53.625 -11.578125 49.890625 -23.328125 38.8125 -28.359375 C 27.671875 -33.421875 16.421875 -28.484375 11.390625 -17.40625 Z M 43.78125 -2.6875 C 39.8125 6.015625 31.4375 10.09375 23.0625 6.28125 C 14.625 2.4375 12.25 -6.515625 16.21875 -15.21875 C 20.203125 -24 28.484375 -28.046875 36.921875 -24.203125 C 45.296875 -20.390625 47.765625 -11.46875 43.78125 -2.6875 Z M 43.78125 -2.6875 "/></g></g></g><g fill="#000000" fill-opacity="1"><g transform="translate(301.963189, 746.464863)"><g><path d="M 33.53125 9.015625 L 27.140625 -10.09375 C 32.703125 -9.109375 38.65625 -11.734375 40.578125 -18.890625 C 42.546875 -26.21875 38.625 -32.296875 31.34375 -34.25 L 15.34375 -38.546875 L 4.640625 1.25 L 9.59375 2.578125 L 13.84375 -13.234375 L 21.78125 -11.09375 L 27.671875 7.4375 Z M 35.4375 -20.28125 C 34.234375 -15.8125 30.171875 -13.5 25.453125 -14.765625 L 15.015625 -17.578125 L 19.109375 -32.796875 L 29.546875 -29.984375 C 34.265625 -28.71875 36.640625 -24.765625 35.4375 -20.28125 Z M 35.4375 -20.28125 "/></g></g></g><g fill="#000000" fill-opacity="1"><g transform="translate(352.497597, 758.869937)"><g><path d="M 20 2.34375 L 24.265625 -34.03125 L 37.265625 -32.5 L 37.8125 -37.046875 L 6.765625 -40.6875 L 6.21875 -36.140625 L 19.171875 -34.625 L 14.90625 1.75 Z M 20 2.34375 "/></g></g></g><g fill="#000000" fill-opacity="1"><g transform="translate(401.860567, 763.606983)"><g><path d="M 9.9375 -0.234375 L 9.5 -19.015625 L 30.921875 -19.515625 L 30.8125 -24.078125 L 9.390625 -23.578125 L 9.078125 -36.84375 L 30.9375 -37.359375 L 30.828125 -41.9375 L 3.84375 -41.296875 L 4.8125 -0.109375 Z M 9.9375 -0.234375 "/></g></g></g><g fill="#000000" fill-opacity="1"><g transform="translate(450.560905, 761.822787)"><g><path d="M -0.609375 -20.796875 C 1.59375 -8.84375 11.3125 -1.34375 23.34375 -3.546875 C 35.3125 -5.75 41.78125 -16.234375 39.578125 -28.1875 C 37.375 -40.15625 27.59375 -47.65625 15.625 -45.453125 C 3.59375 -43.25 -2.8125 -32.765625 -0.609375 -20.796875 Z M 34.375 -27.234375 C 36.109375 -17.828125 31.5625 -9.703125 22.515625 -8.03125 C 13.40625 -6.359375 6.34375 -12.34375 4.609375 -21.75 C 2.859375 -31.234375 7.34375 -39.296875 16.453125 -40.96875 C 25.5 -42.640625 32.625 -36.71875 34.375 -27.234375 Z M 34.375 -27.234375 "/></g></g></g><g fill="#000000" fill-opacity="1"><g transform="translate(511.068559, 748.915946)"><g><path d="M 27.453125 -9.609375 L 25.9375 -13.9375 L 7.859375 -7.609375 L -4.234375 -42.171875 L -9.0625 -40.484375 L 4.546875 -1.59375 Z M 27.453125 -9.609375 "/></g></g></g><g fill="#000000" fill-opacity="1"><g transform="translate(553.361865, 732.873226)"><g><path d="M 8.984375 -4.25 L -8.65625 -41.484375 L -13.296875 -39.296875 L 4.34375 -2.0625 Z M 8.984375 -4.25 "/></g></g></g><g fill="#000000" fill-opacity="1"><g transform="translate(579.637464, 720.571365)"><g><path d="M -8.46875 -19 C -1.890625 -8.765625 9.9375 -5.53125 20.234375 -12.140625 C 30.46875 -18.734375 32.46875 -30.890625 25.890625 -41.125 C 19.296875 -51.359375 7.40625 -54.5625 -2.828125 -47.96875 C -13.125 -41.359375 -15.0625 -29.234375 -8.46875 -19 Z M 21.4375 -38.265625 C 26.609375 -30.21875 25.5 -20.96875 17.765625 -15.984375 C 9.96875 -10.96875 1.171875 -13.828125 -4 -21.875 C -9.21875 -29.96875 -8.15625 -39.125 -0.359375 -44.140625 C 7.375 -49.125 16.21875 -46.359375 21.4375 -38.265625 Z M 21.4375 -38.265625 "/></g></g></g><g clip-path="url(#9fc437403b)"><g clip-path="url(#b98d58cd96)"><path stroke-linecap="butt" transform="matrix(0.75, 0, 0, 0.75, 132.377678, 132.377694)" fill="none" stroke-linejoin="miter" d="M 363.49124 0.00161615 C 162.74123 0.00161615 0.00163815 162.741208 0.00163815 363.491218 C 0.00163815 564.241228 162.74123 726.986028 363.49124 726.986028 C 564.24125 726.986028 726.98605 564.241228 726.98605 363.491218 C 726.98605 162.741208 564.24125 0.00161615 363.49124 0.00161615 Z M 363.49124 0.00161615 " stroke="#000000" stroke-width="2" stroke-opacity="1" stroke-miterlimit="4"/></g></g><g fill="#000000" fill-opacity="1"><g transform="translate(226.005475, 458.881685)"><g><path d="M 27.21875 -3.734375 C 33.675781 -3.734375 39.203125 -6.03125 43.796875 -10.625 C 48.398438 -15.21875 50.828125 -20.75 51.078125 -27.21875 L 51.078125 -235.984375 C 51.078125 -241.941406 48.710938 -246.972656 43.984375 -251.078125 C 39.265625 -255.179688 33.675781 -257.234375 27.21875 -257.234375 L 22.734375 -257.234375 L 22.375 -260.953125 L 98.046875 -260.953125 C 105.753906 -260.953125 114.140625 -261.695312 123.203125 -263.1875 C 132.273438 -264.6875 138.675781 -266.179688 142.40625 -267.671875 L 142.40625 -220.703125 L 138.6875 -220.703125 L 138.6875 -227.40625 C 138.6875 -233.375 136.632812 -238.46875 132.53125 -242.6875 C 128.425781 -246.914062 123.515625 -249.15625 117.796875 -249.40625 L 75.3125 -249.40625 L 75.3125 -134.203125 L 146.140625 -134.203125 C 151.109375 -134.453125 155.332031 -136.316406 158.8125 -139.796875 C 162.289062 -143.273438 164.03125 -147.625 164.03125 -152.84375 L 164.03125 -158.0625 L 167.765625 -158.0625 L 167.765625 -99.15625 L 164.03125 -99.15625 L 164.03125 -104.75 C 164.03125 -109.726562 162.351562 -113.957031 159 -117.4375 C 155.644531 -120.914062 151.484375 -122.773438 146.515625 -123.015625 L 75.3125 -123.015625 L 75.3125 -11.5625 L 154.703125 -11.5625 C 173.097656 -11.5625 187.140625 -15.660156 196.828125 -23.859375 C 206.523438 -32.054688 214.601562 -44.234375 221.0625 -60.390625 L 224.796875 -60.390625 L 203.171875 0 L 22.375 0 L 22.375 -3.734375 Z M 27.21875 -3.734375 "/></g></g></g><g fill="#000000" fill-opacity="1"><g transform="translate(298.854802, 577.269972)"><g><path d="M 91.296875 -153.921875 C 90.421875 -156.773438 89.984375 -159.242188 89.984375 -161.328125 C 89.984375 -163.421875 90.09375 -165.785156 90.3125 -168.421875 C 90.53125 -171.054688 91.023438 -174.679688 91.796875 -179.296875 C 92.566406 -183.910156 94.046875 -188.46875 96.234375 -192.96875 C 98.429688 -197.476562 100.957031 -201.820312 103.8125 -206 C 106.675781 -210.175781 110.359375 -214.019531 114.859375 -217.53125 C 119.367188 -221.050781 124.367188 -224.128906 129.859375 -226.765625 C 141.503906 -232.472656 155.675781 -235.328125 172.375 -235.328125 C 206 -235.328125 233.410156 -224.175781 254.609375 -201.875 C 275.816406 -179.570312 286.421875 -151.0625 286.421875 -116.34375 C 286.421875 -81.625 273.894531 -52.785156 248.84375 -29.828125 C 223.789062 -6.867188 192.035156 4.609375 153.578125 4.609375 C 115.128906 4.609375 83.21875 -6.8125 57.84375 -29.65625 C 32.46875 -52.507812 19.78125 -82.175781 19.78125 -118.65625 C 19.78125 -142.164062 25.269531 -163.035156 36.25 -181.265625 C 47.238281 -199.503906 62.953125 -213.789062 83.390625 -224.125 L 85.359375 -221.15625 C 71.078125 -211.707031 60.804688 -198.082031 54.546875 -180.28125 C 48.285156 -162.488281 45.15625 -143.59375 45.15625 -123.59375 C 45.15625 -86.457031 55.257812 -57.453125 75.46875 -36.578125 C 95.6875 -15.710938 121.613281 -5.28125 153.25 -5.28125 C 184.894531 -5.28125 210.769531 -15.769531 230.875 -36.75 C 250.976562 -57.726562 261.03125 -85.359375 261.03125 -119.640625 C 261.03125 -149.304688 253.066406 -174.351562 237.140625 -194.78125 C 221.210938 -215.21875 198.742188 -225.4375 169.734375 -225.4375 C 156.773438 -225.4375 145.019531 -223.128906 134.46875 -218.515625 C 115.351562 -210.390625 102.722656 -196.988281 96.578125 -178.3125 C 94.816406 -172.820312 93.9375 -168.097656 93.9375 -164.140625 C 93.9375 -160.179688 94.15625 -156.992188 94.59375 -154.578125 Z M 91.296875 -153.921875 "/></g></g></g></svg>